# xmcd
#
# Track frame offsets:
#	150
#	13082
#	25625
#	39860
#	51635
#	62682
#	80200
#	93372
#	105135
#	118565
#
# Disc length: 1723 seconds
#
# Revision: 1
# Processed by: cddbd v1.4PL0 Copyright (c) Steve Scherf et al.
# Submitted via: audiograbber 1.81.02
#
DISCID=7406b90a
DTITLE=Merle Haggard and George Jones - Merle Haggard and George Jones
DYEAR=1995
DGENRE=Country
TTITLE0=Fightin' Side Of Me
TTITLE1=Brothers Of A Bottle
TTITLE2=Branded Man
TTITLE3=There Goes My Everything
TTITLE4=Wrong Side Of The World
TTITLE5=I Think I'll Just Stay Here and Drink
TTITLE6=Hello Darlin'
TTITLE7=Turning Off The Memory
TTITLE8=Almost Persuaded
TTITLE9=Old Man From The Mountain
EXTD=
EXTT0=
EXTT1=
EXTT2=
EXTT3=
EXTT4=
EXTT5=
EXTT6=
EXTT7=
EXTT8=
EXTT9=
PLAYORDER=
